<svg xmlns="http://www.w3.org/2000/svg" viewBox="0 0 43 45"><title>lock</title><g id="Calque_2" data-name="Calque 2"><g id="Calque_1-2" data-name="Calque 1"><path d="M39,16H34V12.5a12.5,12.5,0,0,0-25,0V16H4a4,4,0,0,0-4,4V41a4,4,0,0,0,4,4H39a4,4,0,0,0,4-4V20A4,4,0,0,0,39,16ZM12,12.5a9.5,9.5,0,0,1,19,0V16H12ZM40,41a1,1,0,0,1-1,1H4a1,1,0,0,1-1-1V20a1,1,0,0,1,1-1H39a1,1,0,0,1,1,1Z" style="fill:#f0380f"/><path d="M21.91,23.5a5.4,5.4,0,0,0-5.41,5.37,5,5,0,0,0,.87,2.78v1.52a4.55,4.55,0,0,0,9.09,0V31.65a5.11,5.11,0,0,0,.87-2.78A5.4,5.4,0,0,0,21.91,23.5Zm1.86,6.75-.31.41v2.51a1.55,1.55,0,0,1-3.09,0V30.66l-.31-.41a2.22,2.22,0,0,1-.56-1.38,2.42,2.42,0,0,1,4.83,0A2.28,2.28,0,0,1,23.77,30.25Z" style="fill:#f0380f"/></g></g></svg>