<svg width="73" height="66" viewBox="0 0 73 66" fill="none" xmlns="http://www.w3.org/2000/svg">
<path d="M1.54465 28.975C2.10269 29.1069 2.55569 29.0673 2.91677 28.8826C3.44855 28.6385 3.90155 28.0381 4.15103 27.0024C4.42676 25.8479 4.25607 25.0958 3.78338 24.6472C3.57986 24.4361 3.30412 24.3239 3.13342 24.2645L2.89708 25.2475C3.04151 25.3003 3.16625 25.3729 3.25816 25.4982C3.48794 25.8215 3.50107 26.2239 3.35664 26.8177C3.23847 27.3257 2.97586 27.8072 2.57538 27.9788C2.38499 28.0579 2.13552 28.0711 1.78756 27.9854C1.47244 27.9128 1.24922 27.7875 1.11135 27.6291C0.855309 27.3388 0.776527 26.8638 0.920961 26.2371C1.07196 25.5972 1.34113 25.2409 1.62343 25.109C1.75474 25.043 1.91887 25.0232 2.05674 25.043L2.29308 24.06C2.14208 24.027 1.85978 24.0138 1.61687 24.0798C1.00631 24.2711 0.415442 24.7857 0.120009 26.0326C-0.136032 27.1079 0.0412274 27.827 0.428573 28.3152C0.658354 28.6319 1.03913 28.8496 1.54465 28.975ZM5.61506 22.4371L4.21668 21.7312L4.91915 20.3326L6.79679 20.0819L7.28918 19.0989L5.22115 19.4024C5.3065 19.1253 5.25398 18.835 5.12267 18.6239C5.02419 18.4524 4.8338 18.2941 4.57776 18.1621C4.29546 18.017 4.05911 17.9774 3.8359 18.0236C3.50107 18.0896 3.16625 18.3666 2.89051 18.9142L1.60374 21.4739L5.18176 23.2882L5.61506 22.4371ZM2.74608 20.9791L3.5536 19.3694C3.6849 19.1121 3.80307 19.0066 3.95407 18.9868C4.03942 18.967 4.1379 19.0066 4.22324 19.0527C4.29546 19.0923 4.38737 19.1517 4.43333 19.2309C4.49898 19.3298 4.48585 19.4882 4.36768 19.7191L3.5339 21.3816L2.74608 20.9791ZM10.5455 14.8833L9.91525 14.3819L8.04417 16.7437L7.41392 16.2423L9.20621 13.9795L8.57595 13.4781L6.78366 15.7409L6.16653 15.2396L8.01135 12.9041L7.38109 12.3962L4.94541 15.4771L8.08356 17.984L10.5455 14.8833ZM12.0292 13.4055L11.7929 12.4423L13.5852 10.8986L14.4846 11.2944L15.279 10.6083L11.1298 8.87985L10.2501 9.63193L11.248 14.0784L12.0292 13.4055ZM11.5172 10.0146L12.7777 10.5621L11.5959 11.5781L11.2742 10.2191L11.1626 9.83644L11.5172 10.0146ZM15.3381 6.80832L17.0122 9.55276L17.8525 9.03818L16.1784 6.29374L17.6753 5.37013L17.2551 4.68402L13.4211 7.04582L13.8412 7.73193L15.3381 6.80832ZM24.1879 6.02985L23.8794 5.27777L21.1023 6.43228L20.7937 5.6868L23.4526 4.57846L23.1441 3.83298L20.4852 4.94131L20.1832 4.20902L22.9274 3.0677L22.6189 2.31562L19.008 3.82638L20.5377 7.54721L24.1879 6.02985ZM28.1861 4.95451C29.0724 4.7434 29.5189 4.34097 29.6699 3.80659C29.7749 3.46354 29.7486 3.09409 29.6042 2.48715C29.4729 1.91979 29.3285 1.58993 29.0724 1.33923C28.7048 0.956596 28.127 0.824651 27.2342 1.03576L24.7854 1.61632L25.7045 5.54166L28.1861 4.95451ZM27.2801 1.84062C27.7922 1.72187 28.1073 1.76805 28.3437 1.99896C28.4881 2.1243 28.5932 2.39479 28.6785 2.72465C28.7639 3.0875 28.8033 3.40416 28.7245 3.60208C28.6194 3.90555 28.3503 4.09687 27.8119 4.22222L26.4595 4.54548L25.9014 2.16389L27.2801 1.84062ZM35.5523 0.844443L35.5982 4.06388L36.583 4.05069L36.537 0.824651L38.2965 0.798263L38.2834 0L33.7862 0.0593749L33.7994 0.864235L35.5523 0.844443ZM41.7892 4.51249C42.7346 4.65103 43.4633 4.51909 43.9229 4.11666C44.2642 3.82638 44.494 3.39756 44.5794 2.79722C44.6647 2.21666 44.5991 1.76146 44.3233 1.37222C43.9491 0.844443 43.3386 0.52118 42.3866 0.382638C41.4281 0.244097 40.7781 0.389235 40.2398 0.818054C39.8787 1.11493 39.6752 1.53055 39.5964 2.07152C39.5111 2.67847 39.6161 3.16006 39.8853 3.5427C40.2398 4.03749 40.8635 4.37395 41.7892 4.51249ZM40.5746 2.22986C40.6271 1.87361 40.765 1.57014 40.9751 1.39861C41.2443 1.1875 41.6644 1.08194 42.2684 1.1743C42.9052 1.26666 43.2204 1.46458 43.4633 1.75486C43.634 1.96597 43.6602 2.32222 43.6077 2.67187C43.5552 3.01493 43.437 3.33819 43.2007 3.50972C42.8921 3.73402 42.5179 3.81979 41.9008 3.72742C41.3427 3.64166 41.0145 3.47013 40.7716 3.19965C40.5615 2.95555 40.5155 2.6125 40.5746 2.22986ZM50.4027 6.87429C51.4991 7.3295 52.2606 7.27013 52.7727 6.8677C53.0156 6.69617 53.1666 6.44548 53.252 6.28055L52.3197 5.89791C52.2475 6.03645 52.1556 6.1486 52.0177 6.21457C51.6632 6.3927 51.2693 6.34652 50.7047 6.10902C50.2254 5.9111 49.7921 5.57464 49.6805 5.15242C49.6346 4.94791 49.6542 4.69721 49.7921 4.36735C49.9169 4.07048 50.0679 3.86597 50.2451 3.74722C50.5668 3.53611 51.0461 3.52951 51.6435 3.7736C52.2475 4.0243 52.5626 4.34097 52.648 4.64444C52.6874 4.78298 52.6874 4.94791 52.648 5.07985L53.5802 5.46249C53.6327 5.31735 53.6918 5.04027 53.6656 4.78958C53.5737 4.14965 53.1535 3.48992 51.9718 3.00173C50.9542 2.57951 50.2188 2.65208 49.6739 2.96215C49.3326 3.14687 49.0634 3.48992 48.8599 3.97812C48.6432 4.51249 48.617 4.9677 48.7417 5.35694C48.8993 5.9243 49.4179 6.46527 50.4027 6.87429ZM55.5957 7.62638L56.9088 8.46422L56.9744 10.3642L57.9001 10.9514L57.8016 8.85346C58.0708 8.96561 58.3597 8.94582 58.5829 8.83367C58.7601 8.7545 58.9374 8.57638 59.095 8.33228C59.2657 8.06179 59.3247 7.83089 59.305 7.59999C59.2722 7.25693 59.0293 6.89409 58.5172 6.57082L56.1078 5.03367L53.9544 8.43124L54.762 8.94582L55.5957 7.62638ZM56.4886 6.22117L57.9986 7.18436C58.2415 7.3361 58.3334 7.46804 58.34 7.62638C58.3465 7.71214 58.3006 7.8111 58.2481 7.89026C58.2021 7.96283 58.1365 8.042 58.0445 8.08158C57.9395 8.13436 57.7885 8.10797 57.5653 7.96943L56.0028 6.97325L56.4886 6.22117ZM61.8589 14.5403L62.4038 13.9465L60.1979 11.9014L60.7428 11.3076L62.8568 13.2736L63.4017 12.6798L61.2877 10.7139L61.8261 10.1267L64.0057 12.1521L64.5506 11.5583L61.6751 8.88644L58.9571 11.8486L61.8589 14.5403ZM63.2179 16.1302L64.1961 15.9653L65.5945 17.885L65.1349 18.7559L65.7521 19.6069L67.7873 15.5826L67.1045 14.6458L62.6205 15.3055L63.2179 16.1302ZM66.4348 15.6156L66.8222 15.5364L66.6252 15.8795L65.9818 17.1L65.0627 15.8333L66.4348 15.6156ZM66.599 21.4211L67.0257 22.3118L69.9209 20.9198L70.6825 22.5097L71.4047 22.16L69.4614 18.083L68.7392 18.4326L69.5008 20.0225L66.599 21.4211ZM69.12 28.9816L69.9012 28.7902L69.1856 25.8611L69.9669 25.6698L70.6497 28.4802L71.4309 28.2888L70.7481 25.4784L71.5163 25.2871L72.2188 28.1833L73 27.992L72.0677 24.1656L68.1746 25.1222L69.12 28.9816ZM70.4527 34.0944C70.4396 34.5034 70.7416 34.8597 71.1486 34.8729C71.5622 34.8861 71.8905 34.5628 71.9102 34.1538C71.9233 33.7447 71.6213 33.3951 71.2077 33.3753C70.8007 33.3555 70.4724 33.6854 70.4527 34.0944ZM67.4196 43.0402L68.1877 43.2909L69.1266 40.4211L69.8881 40.6718L68.9887 43.4228L69.7502 43.6735L70.6497 40.9225L71.4047 41.1732L70.479 44.0034L71.2471 44.2607L72.4748 40.5201L68.667 39.26L67.4196 43.0402ZM69.3563 45.7451C68.7983 45.4152 68.2468 45.6395 67.505 46.6291C67.3933 46.7676 67.111 47.1371 67.0126 47.2756C66.4939 47.9749 66.3167 48.0871 66.0672 47.9353C65.8374 47.8034 65.8243 47.5065 66.2904 46.6951C66.7631 45.8836 67.2095 45.6197 67.4984 45.7846L68.0236 44.894C67.4393 44.551 66.5727 44.6895 65.6536 46.2662C64.8855 47.5791 64.9314 48.4433 65.6142 48.8458C66.1919 49.1888 66.7565 48.9711 67.3736 48.1201C67.459 48.0079 67.761 47.6055 67.8989 47.4208C68.4963 46.6291 68.6736 46.4905 68.8968 46.6225C69.1134 46.7478 69.12 46.9853 68.6539 47.7968C68.1943 48.5819 67.8332 48.8128 67.5443 48.6412L67.0257 49.5253C67.5969 49.8617 68.4635 49.6506 69.2841 48.2388C70.0391 46.9524 69.9472 46.0881 69.3563 45.7451ZM65.2137 52.5006L62.8109 50.3697L62.1609 51.1086L64.5638 53.2395L63.4017 54.5655L64.0057 55.0999L66.9863 51.7089L66.3889 51.1746L65.2137 52.5006ZM59.6399 53.576L60.3817 54.4072L61.1499 53.7145L60.408 52.8832L59.6399 53.576ZM57.4931 58.4315L56.6396 58.9263C56.6855 59.0121 56.7381 59.1242 56.7512 59.2034C56.8234 59.5068 56.6724 59.7905 56.2457 60.0346C55.727 60.3381 55.3856 60.2985 55.2281 60.0214C55.2084 59.9884 55.1887 59.9489 55.169 59.9159C54.8145 59.2825 55.3856 58.4447 56.6593 56.9009L56.2654 56.2148L52.7661 58.2534L53.1601 58.9395L55.0836 57.818C54.2433 58.8141 53.9216 59.7971 54.2958 60.4964C54.3155 60.5426 54.3746 60.6416 54.4009 60.6877C54.716 61.1957 55.3594 61.4728 56.5871 60.7603C57.6047 60.1666 57.8476 59.5003 57.6966 58.9131C57.6441 58.7614 57.5653 58.5832 57.4931 58.4315ZM52.4773 60.6218C52.3919 60.3975 52.2672 60.1402 52.1359 59.9489C51.6172 59.2232 50.8032 59.045 49.7462 59.4607C48.7745 59.8433 48.2362 60.5294 48.3084 61.3805C48.3281 61.6048 48.4134 61.9214 48.5053 62.1589C48.6169 62.4492 48.7351 62.6801 48.8861 62.8846C49.3522 63.4916 50.2057 63.7225 51.243 63.32C52.3394 62.8912 52.7858 62.1391 52.6874 61.3343C52.6414 61.077 52.5758 60.8857 52.4773 60.6218ZM50.9542 62.6141C50.4092 62.8252 50.0088 62.7131 49.7527 62.4096C49.6411 62.2777 49.5164 62.0204 49.4376 61.8159C49.3654 61.6311 49.2866 61.3475 49.2669 61.2023C49.2209 60.7603 49.4704 60.3909 50.0219 60.1732C50.5668 59.9621 51.0001 60.0478 51.2693 60.4173C51.3678 60.5492 51.4794 60.7669 51.5647 60.9846C51.6304 61.1562 51.7091 61.4332 51.7288 61.5916C51.7682 62.0138 51.5188 62.3964 50.9542 62.6141ZM46.8378 61.895C46.4373 61.1034 45.6561 60.7999 44.5465 61.0506C43.5289 61.2749 42.8921 61.8818 42.8396 62.7329C42.8265 62.9572 42.8659 63.287 42.9184 63.5377C42.984 63.8412 43.0694 64.0853 43.1875 64.3162C43.5618 64.9825 44.3693 65.3454 45.4525 65.1013C46.6014 64.844 47.1529 64.1645 47.1726 63.3596C47.1726 63.0825 47.1398 62.8846 47.0807 62.6141C47.0216 62.3766 46.9428 62.1061 46.8378 61.895ZM45.2753 64.3492C44.7041 64.4811 44.3233 64.303 44.1198 63.9666C44.0279 63.8214 43.9425 63.5443 43.8966 63.3332C43.8506 63.1353 43.8112 62.845 43.8178 62.6999C43.8375 62.2579 44.1395 61.928 44.7172 61.7961C45.2884 61.6707 45.702 61.8225 45.9121 62.2249C45.9843 62.37 46.0697 62.6009 46.1222 62.8318C46.1616 63.01 46.201 63.3002 46.1944 63.4586C46.1616 63.8808 45.8661 64.2173 45.2753 64.3492ZM41.172 62.6999C40.8175 62.0006 40.0691 61.7829 39.1434 61.8555C37.896 61.9478 37.3117 62.4624 37.2461 63.1089C37.2264 63.2475 37.2658 63.5773 37.2986 63.6829C37.4365 64.2832 37.9748 64.6527 39.0252 64.5735C39.7277 64.5207 40.2529 64.303 40.4893 64.0919C40.4958 64.2173 40.4893 64.3096 40.4827 64.4284C40.4564 64.8704 40.1151 65.1673 39.4585 65.2134C38.9399 65.253 38.6445 65.1805 38.5394 65.0023C38.5066 64.9561 38.4935 64.91 38.4869 64.877L37.5875 64.9429C37.6072 65.0551 37.6334 65.1805 37.6794 65.286C37.9223 65.7742 38.4278 66.0711 39.5373 65.9853C40.6271 65.9061 41.2114 65.3586 41.3756 64.7384C41.4543 64.435 41.474 64.0787 41.4543 63.7621C41.415 63.3662 41.3033 62.9638 41.172 62.6999ZM39.2222 63.8544C38.5525 63.9072 38.3162 63.7093 38.2571 63.4916C38.2243 63.3794 38.2111 63.2343 38.2243 63.1353C38.2505 62.878 38.546 62.6339 39.1828 62.5877C39.7605 62.5416 40.1479 62.7065 40.3251 63.0693C40.3777 63.1815 40.3974 63.2804 40.4236 63.419C40.3186 63.5311 39.8524 63.8082 39.2222 63.8544ZM32.053 62.9044C31.646 62.8582 31.2783 63.1353 31.2324 63.5443C31.1864 63.96 31.4884 64.3096 31.8955 64.3558C32.3025 64.402 32.6701 64.1249 32.7161 63.7093C32.7621 63.3002 32.4601 62.9506 32.053 62.9044ZM24.851 60.1336C23.7218 59.7641 22.9668 59.8829 22.4876 60.3183C22.2578 60.5096 22.1265 60.7735 22.0543 60.9384L23.0128 61.2485C23.0719 61.11 23.1572 60.9846 23.2885 60.9055C23.6299 60.7009 24.0238 60.7207 24.6081 60.9055C25.1071 61.0638 25.5601 61.3673 25.7045 61.7763C25.7701 61.9742 25.7636 62.2249 25.652 62.568C25.5535 62.878 25.4156 63.0891 25.2449 63.2145C24.9364 63.452 24.4637 63.4916 23.8465 63.2936C23.2229 63.0891 22.888 62.7989 22.783 62.502C22.7305 62.3634 22.7173 62.1985 22.7502 62.0666L21.7916 61.7565C21.7523 61.9016 21.7129 62.1919 21.7588 62.436C21.9033 63.0627 22.3694 63.6895 23.5774 64.0853C24.6278 64.4284 25.3565 64.303 25.8686 63.9534C26.1903 63.7489 26.4398 63.3794 26.5974 62.878C26.7746 62.3305 26.7681 61.8686 26.6105 61.4992C26.4201 60.9648 25.8621 60.4634 24.851 60.1336ZM19.2641 57.752C18.4172 57.3034 17.6884 57.178 17.1238 57.4023C16.7036 57.5607 16.3491 57.8905 16.0668 58.4249C15.7911 58.9395 15.6992 59.3947 15.8239 59.8565C15.9946 60.4766 16.4607 60.9912 17.3142 61.4464C18.1677 61.9016 18.8308 61.9874 19.4741 61.7631C19.914 61.6114 20.2423 61.2815 20.4983 60.7999C20.7806 60.2589 20.8463 59.7707 20.7215 59.3221C20.5574 58.7218 20.0847 58.194 19.2641 57.752ZM19.6383 60.3117C19.4676 60.6284 19.2312 60.8659 18.9818 60.9582C18.6601 61.0638 18.2333 61.0176 17.6884 60.7339C17.1172 60.4305 16.8875 60.1402 16.7627 59.7839C16.6708 59.5266 16.7693 59.1836 16.9334 58.8669C17.0975 58.5569 17.3208 58.293 17.5965 58.2138C17.9576 58.1082 18.3449 58.1544 18.8898 58.4447C19.3888 58.7152 19.6383 58.9857 19.7696 59.3221C19.8943 59.6322 19.8155 59.9687 19.6383 60.3117ZM12.9484 53.5298L12.456 54.1697L14.5306 55.7794L12.5741 58.3259L13.3423 58.9197L15.7911 55.7332L12.9484 53.5298ZM8.74665 50.0464C8.30022 50.053 7.85378 50.2444 7.40735 50.6534C6.98062 51.0492 6.7377 51.4451 6.70488 51.9201C6.66549 52.5666 6.93466 53.1999 7.58461 53.919C8.23456 54.6315 8.832 54.9416 9.51477 54.9416C9.9809 54.9416 10.4011 54.7503 10.8015 54.3742C11.248 53.9586 11.4712 53.5232 11.504 53.0548C11.5434 52.4478 11.2742 51.7881 10.644 51.0954C10.0006 50.3895 9.35064 50.0267 8.74665 50.0464ZM10.145 53.6353C9.88242 53.8794 9.58042 54.0246 9.31782 54.0246C8.97643 54.018 8.58908 53.8332 8.17548 53.378C7.74218 52.903 7.61744 52.5468 7.61744 52.1707C7.61744 51.9003 7.82096 51.6034 8.08356 51.3659C8.33961 51.1284 8.64161 50.9569 8.92391 50.9767C9.30469 50.9964 9.64608 51.1746 10.0662 51.6298C10.447 52.052 10.5915 52.3885 10.6046 52.7513C10.6177 53.0812 10.4339 53.3714 10.145 53.6353ZM7.57148 47.236L6.22562 48.0277L5.4378 46.6753L6.24532 44.9534L5.69384 44.0034L4.82724 45.91C4.64341 45.6857 4.36768 45.5735 4.12477 45.5669C3.92781 45.5603 3.69146 45.6329 3.44199 45.778C3.16625 45.9364 3.00869 46.1145 2.92334 46.3322C2.7986 46.6489 2.84456 47.0843 3.15312 47.6121L4.59089 50.0992L8.05074 48.0673L7.57148 47.236ZM4.78785 48.8721L3.88185 47.3152C3.73742 47.0645 3.71772 46.9062 3.78338 46.7676C3.8162 46.6885 3.90155 46.6225 3.9869 46.5763C4.05911 46.5367 4.15759 46.4906 4.25607 46.4971C4.37424 46.4971 4.49241 46.5961 4.63028 46.8204L5.56254 48.4235L4.78785 48.8721ZM4.58433 43.2909L5.29993 43.0534L3.95407 38.9235L3.19908 39.1742L4.13133 42.0506L0.875004 40.0385L0.172531 40.2694L1.44617 44.1815L2.2143 43.9308L1.37396 41.3447L4.58433 43.2909ZM0.815918 34.1406C0.829048 34.5496 1.16387 34.8795 1.57748 34.8597C1.98452 34.8465 2.28652 34.4902 2.27339 34.0812C2.26026 33.6722 1.92543 33.3423 1.51839 33.3621C1.09822 33.3819 0.796222 33.7315 0.815918 34.1406ZM63.8153 33.0388V33.0256C63.8153 26.3163 60.71 20.2534 55.7402 15.8861C50.7638 11.5187 43.9163 8.82707 36.3598 8.82707C28.8033 8.82707 21.9558 11.5187 16.9794 15.8861C12.003 20.2534 8.90421 26.3229 8.90421 33.0322C8.90421 39.7416 12.003 45.811 16.9794 50.1784C21.9558 54.5457 28.8033 57.2374 36.3598 57.2374C43.9163 57.2374 50.7638 54.5523 55.7402 50.1784C60.7166 45.8176 63.8153 39.7482 63.8153 33.0388ZM54.8407 16.9218C58.2678 19.9368 60.7363 23.7698 61.8261 28.0513C59.3182 25.3729 56.1866 23.1034 52.6086 21.3882C51.7748 19.409 50.7375 17.5882 49.5229 15.9916C48.118 14.1378 46.4767 12.5809 44.6647 11.3934C48.5513 12.5347 52.0243 14.4479 54.8407 16.9218ZM42.9775 11.9673C46.0434 13.676 48.6826 16.5524 50.5537 20.2007C50.6128 20.3194 50.6718 20.4382 50.7244 20.5503C48.0917 19.475 45.249 18.6833 42.2553 18.2347C42.0977 17.5288 41.927 16.8559 41.7432 16.2159C41.1261 14.0455 40.3908 12.2642 39.5242 10.9778C39.4191 10.8194 39.3075 10.6611 39.1894 10.516C40.5155 10.8128 41.776 11.301 42.9775 11.9673ZM35.4078 10.5555C35.7558 10.3048 36.0643 10.2059 36.3598 10.2059C36.6552 10.2059 36.9638 10.3048 37.3117 10.5555C37.6137 10.7732 37.942 11.1097 38.2637 11.5517C38.8283 12.3368 39.3863 13.4583 39.8853 14.8503C40.2267 15.7937 40.5352 16.8691 40.8175 18.0434C39.3601 17.8784 37.8763 17.7927 36.3663 17.7927C34.8563 17.7927 33.3661 17.8784 31.9151 18.0434C32.0333 17.542 32.1646 17.0538 32.2959 16.592C32.8868 14.5073 33.5958 12.8448 34.3311 11.7496C34.6922 11.2021 35.0664 10.8062 35.4078 10.5555ZM33.5302 10.5226C33.4711 10.5951 33.412 10.6677 33.3595 10.7469C32.6833 11.6837 32.0924 12.9107 31.5606 14.3885C31.1536 15.5298 30.7859 16.8229 30.4642 18.2347C27.4771 18.6833 24.6344 19.475 22.0017 20.5503C22.6648 19.1979 23.4329 17.951 24.2864 16.8229C25.8489 14.7646 27.7069 13.1087 29.7486 11.9673C30.9435 11.301 32.2106 10.8128 33.5302 10.5226ZM17.8788 16.9218C20.6953 14.4479 24.1682 12.5347 28.0483 11.3934C25.1596 13.2868 22.7239 16.117 20.9513 19.5739C20.6493 20.1611 20.3736 20.768 20.111 21.3882C16.5329 23.1034 13.4014 25.3729 10.8935 28.0513C11.9833 23.7698 14.4518 19.9368 17.8788 16.9218ZM11.7535 29.1399C17.2945 23.1166 26.2494 19.1649 36.3663 19.1649C46.4833 19.1649 55.4316 23.11 60.9792 29.1399C61.9574 30.202 62.4563 31.6138 62.4563 33.0322C62.4563 34.4506 61.9574 35.8624 60.9792 36.9246C55.4316 42.9544 46.4767 46.9062 36.3598 46.8996C26.2428 46.8996 17.2945 42.9544 11.7469 36.9246C10.7687 35.8624 10.2698 34.4506 10.2698 33.0322C10.2698 31.6138 10.7687 30.2086 11.7535 29.1399ZM17.8788 49.1426C14.4452 46.1277 11.9833 42.2947 10.8935 38.0131C13.4014 40.6916 16.5329 42.961 20.111 44.6763C20.9447 46.6555 21.982 48.4763 23.1966 50.0728C24.6015 51.9267 26.2428 53.477 28.0548 54.6711C24.1748 53.5364 20.7018 51.6232 17.8788 49.1426ZM29.7486 54.1037C26.6827 52.3951 24.0435 49.5187 22.1724 45.8704C22.1133 45.7517 22.0543 45.6329 21.9952 45.5142C24.6278 46.5895 27.4705 47.3812 30.4642 47.8298C30.6218 48.5357 30.7925 49.2086 30.9763 49.8485C31.5935 52.019 32.3288 53.8003 33.1954 55.0867C33.3004 55.245 33.412 55.3968 33.5302 55.5485C32.2106 55.2516 30.9435 54.7701 29.7486 54.1037ZM37.3117 55.5155C36.9638 55.7662 36.6552 55.8652 36.3598 55.8652C36.0643 55.8652 35.7558 55.7662 35.4078 55.5155C35.1058 55.2978 34.7776 54.968 34.4559 54.5194C33.8913 53.7409 33.3332 52.6128 32.8343 51.2207C32.4929 50.2773 32.1843 49.202 31.902 48.0277C33.3595 48.1926 34.8432 48.2784 36.3532 48.2784C37.8632 48.2784 39.3535 48.1926 40.8044 48.0277C40.6862 48.5291 40.5549 49.0173 40.4236 49.4791C39.8327 51.5638 39.1237 53.2263 38.3884 54.3214C38.0339 54.8624 37.6597 55.2648 37.3117 55.5155ZM39.1959 55.5485C39.255 55.4759 39.3141 55.4034 39.3666 55.3242C40.0428 54.3874 40.6337 53.1603 41.1655 51.6826C41.5725 50.5412 41.9402 49.2482 42.2619 47.8364C45.249 47.3812 48.0917 46.5961 50.7244 45.5208C50.0613 46.8732 49.2932 48.1267 48.4397 49.2482C46.8772 51.3065 45.0192 52.9624 42.9775 54.1037C41.776 54.7701 40.509 55.2582 39.1959 55.5485ZM44.6713 54.6711C47.56 52.7777 49.9956 49.9475 51.7682 46.4971C52.0702 45.91 52.346 45.3031 52.6086 44.6829C56.1866 42.9676 59.3182 40.6982 61.8261 38.0197C60.7363 42.3013 58.2743 46.1343 54.8407 49.1492C52.0243 51.6232 48.5513 53.5298 44.6713 54.6711ZM36.4189 42.4992C44.2774 42.4992 48.4266 40.4805 50.1007 36.8784C50.4289 36.1989 50.639 35.0774 50.7309 34.4902H43.5289C43.5092 34.7013 43.437 35.0048 43.2729 35.2159C42.2487 36.7861 39.6817 37.2545 36.4648 37.2545C33.5302 37.2545 30.6152 36.5288 29.4926 34.7211C29.2103 34.2527 29.0724 33.7118 29.0724 33.085C29.0724 32.4319 29.1906 31.8645 29.4663 31.3961C30.4445 29.7072 33.0575 28.843 36.4582 28.843C40.0691 28.843 42.2159 29.8524 43.0103 30.8552C43.2466 31.1124 43.4042 31.4423 43.4764 31.6732H50.6784C50.6325 31.2312 50.5143 30.3604 50.1204 29.4961C48.722 26.6395 45.2228 23.5718 36.5042 23.5718C29.6502 23.5718 25.4747 25.4916 23.3804 28.3746C22.4482 29.6611 21.982 31.2774 21.982 33.0388C21.982 34.9124 22.4941 36.5749 23.4526 37.934C25.4419 40.6982 29.5911 42.4992 36.4189 42.4992Z" fill="#18181B"/>
</svg>
